# xmcd CD database file
#
# Track frame offsets:
#	150
#	46024
#	80957
#	102055
#	132421
#	166389
#
# Disc length: 2793 seconds
#
# Revision: 0
# Processed by: cddbd v1.5.2PL0 Copyright (c) Steve Scherf et al.
# Submitted via: CDex 1.70beta2
#
DISCID=470ae706
DTITLE=Lewis, George - Dutch Masters
DYEAR=1987
DGENRE=Jazz
TTITLE0=Dutch Masters
TTITLE1=Off Minor
TTITLE2=Reef
TTITLE3=Kneebus
TTITLE4=Hornin'In
TTITLE5=Utah
EXTD=YEAR: 1987
EXTT0=
EXTT1=
EXTT2=
EXTT3=
EXTT4=
EXTT5=
PLAYORDER=
